<?xml version="1.0" encoding="UTF-8" standalone="no"?>
<!DOCTYPE svg PUBLIC "-//W3C//DTD SVG 1.1//EN" "http://www.w3.org/Graphics/SVG/1.1/DTD/svg11.dtd">
<svg version="1.1" xmlns="http://www.w3.org/2000/svg" xmlns:xlink="http://www.w3.org/1999/xlink" preserveAspectRatio="xMidYMid meet" viewBox="0 0 640 640" width="640" height="640"><defs><path d="M581 -1C581 -1 581 -1 581 -1C581 240.2 581 374.2 581 401C581 401 581 401 581 401C231.8 401 37.8 401 -1 401C-1 401 -1 401 -1 401C-1 159.8 -1 25.8 -1 -1C-1 -1 -1 -1 -1 -1C348.2 -1 542.2 -1 581 -1Z" id="a5arCXQHeW"></path><path d="M14.97 2.66L4.13 13.5L14.97 24.34L12.89 26.42L-0.04 13.5L12.89 0.58L14.97 2.66Z" id="e2X9Gcj1Dk"></path><path d="M25.97 2.66L15.13 13.5L25.97 24.34L23.89 26.42L10.96 13.5L23.89 0.58L25.97 2.66Z" id="a1LVsjIHVd"></path></defs><g><g><g><use xlink:href="#a5arCXQHeW" opacity="1" fill="#000000" fill-opacity="0"></use><g><use xlink:href="#a5arCXQHeW" opacity="1" fill-opacity="0" stroke="#000000" stroke-width="1" stroke-opacity="0"></use></g></g><g><use xlink:href="#e2X9Gcj1Dk" opacity="1" fill="#ffffff" fill-opacity="1"></use><g><use xlink:href="#e2X9Gcj1Dk" opacity="1" fill-opacity="0" stroke="#000000" stroke-width="1" stroke-opacity="0"></use></g></g><g><use xlink:href="#a1LVsjIHVd" opacity="1" fill="#ffffff" fill-opacity="1"></use><g><use xlink:href="#a1LVsjIHVd" opacity="1" fill-opacity="0" stroke="#000000" stroke-width="1" stroke-opacity="0"></use></g></g></g></g></svg>