<svg width="32" height="32" xmlns="http://www.w3.org/2000/svg">

 <g>
  <title>background</title>
  <rect fill="none" id="canvas_background" height="402" width="582" y="-1" x="-1"/>
 </g>
 <g>
  <title>Layer 1</title>
  <path fill="#5adaff" id="svg_2" d="m16,4c6.617,0 12,5.383 12,12s-5.383,12 -12,12s-12,-5.383 -12,-12s5.383,-12 12,-12zm0,-2c-7.732,0 -14,6.268 -14,14c0,7.73 6.268,14 14,14c7.732,0 14,-6.27 14,-14c0,-7.732 -6.268,-14 -14,-14l0,0zm-4,7c-1.105,0 -2,1.344 -2,3c0,1.658 0.895,3 2,3s2,-1.342 2,-3c0,-1.656 -0.895,-3 -2,-3zm8,0c-1.105,0 -2,1.344 -2,3c0,1.658 0.895,3 2,3s2,-1.342 2,-3c0,-1.656 -0.895,-3 -2,-3zm4.6,13.8c0.441,-0.331 0.531,-0.958 0.201,-1.399c-2.068,-2.756 -5.357,-4.399 -8.801,-4.399c-3.444,0 -6.733,1.646 -8.8,4.399c-0.332,0.441 -0.242,1.068 0.199,1.399c0.442,0.33 1.068,0.241 1.4,-0.2c1.691,-2.254 4.383,-3.6 7.2,-3.6c2.815,0 5.51,1.346 7.198,3.6c0.197,0.263 0.498,0.4 0.802,0.4c0.209,0 0.42,-0.064 0.601,-0.2l0,0z"/>
 </g>
</svg>